<svg xmlns="http://www.w3.org/2000/svg" width="890.50366" height="450.57556" viewBox="0 0 235.61242 119.21478">
  <g transform="translate(-15.54379 -145.31761)">
    <path d="M96.40419 170.53743h10.67869s.7055 2.31657 2.66966 2.63066c1.33484 0 1.33484-2.63066 4.00451-2.63066.64359 0 1.33483 1.31533 2.66966 1.31533.20446 0 1.33484-1.31533 2.66968-1.31533.23647 0 1.33483 2.63066 2.66967 2.63066.23423 0 0-1.31533 1.33483-1.31533 1.31456.0928 2.48162 9.14773 7.27402 9.22831 10.67867 0 10.07883-10.54364 12.74851-10.54364h8.009c1.33484 0 2.53096 9.22156 4.00451 9.20729.3112.004 1.33483 0 2.66966 0h13.94972c1.13923 0 .8659 3.61381 2.20073 3.61381.88598 0 20.21805.76868 25.22944.33218.78194 0 4.0045-1.31532 5.33933-1.31532.32832 0 2.66968 1.31532 4.00451 1.31532h14.68318c.80326 0 2.66966-3.94599 4.00451-3.94599.59147 0 1.33483 2.63067 2.66966 2.63067 1.33484 0 3.90416 1.01868 4.0045 1.31532H85.72551z" fill="#cbcacc"/>
    <path d="M92.3401 170.53743h5.29166c3.96875 0 1.32292 2.64583 5.29166 2.64583 2.64584 0 2.64584-2.64583 5.29167-2.64583 3.96875 0 5.29167 7.9375 9.26042 7.9375 2.64584 0 3.96875-5.29167 5.29167-5.29167 1.32292 0 2.64583 7.9375 5.29167 7.9375 2.64583 0 1.32291-10.58333 5.29166-10.58333.98574-.0152 2.64583 0 5.29167 0 3.96875 0 2.64584 2.64583 5.29167 2.64583 2.64583 0 1.32291-2.64583 5.29166-2.64583 5.29167 0 3.96875 11.90625 6.61459 11.90625 3.96875 0 2.64583-3.96875 3.96875-3.96875 1.32291 0 0 5.29166 2.64583 5.29166s1.32292-5.29166 2.64583-5.29166c1.32292 0 0 1.32291 2.64584 1.32291 2.64583 0 1.32291-2.64583 2.64583-2.64583s1.32292 6.61458 2.64583 6.61458h10.58334c2.64583 0 2.64583-5.29166 3.96875-5.29166 1.32291 0 1.32292 2.64583 3.96875 2.64583s2.64583-5.29167 3.96875-5.29167c1.32291 0 1.32291 3.96875 3.96875 3.96875 1.32291 0 1.32291 3.96875 3.96875 3.96875h13.22916c2.64584 0 2.28786-9.17983 3.96875-9.26041.50287 0 1.32292 5.29166 2.64584 5.29166.54815 0 0-1.32291 1.32291-1.32291 1.32292 0 1.50846 5.24236 2.64584 5.29166 1.50845-.0493 6.61458 0 6.61458 0H84.4026c3.96875 0 3.96875-13.22916 7.9375-13.22916z" fill="#f1c54c"/>
    <path fill="#588fd8" d="M20.90259 190.38118H85.7255v2.64583H20.90259z"/>
    <path d="M93.66301 178.47493c.71561 0 1.32292 1.32292 2.64583 1.32292.33833 0 1.32292-1.32292 2.64584-1.32292.31236 0 1.32292 2.64584 2.64583 2.64584.52257 0 1.32292-1.32292 2.64584-1.32292.67938 0 2.64583 2.64584 5.29166 2.64584.79868 0 1.32292-1.32292 2.64584-1.32292.22874 0 1.32291 1.32292 2.64583 1.32292s1.32292-9.26042 2.64583-9.26042c.21681 0 1.32292 5.29167 2.64584 5.29167 2.64583 0 1.32291-2.64584 3.96875-2.64584 1.02272.11002 1.32291 5.29167 2.64583 5.29167.25532 0 1.32292 1.32292 3.96875 1.32292.56063 0 2.64583-1.32292 3.96875-1.32292.27345 0 2.64583 1.32292 3.96875 1.32292.25878 0 0-1.32292 1.32292-1.32292.2967 0 1.32291 2.64583 2.64582 2.64583.99503.0916 1.42936-1.4479 2.64584-1.32291 1.32291 0 1.32291-1.32292 2.64584-1.32292.37671 0 1.32291 2.64583 2.64582 2.64583 3.96875 0 3.96875-5.29166 5.29168-5.29166 1.32291 0 1.32291 2.64583 2.64582 2.64583 2.64584 0 1.32293-1.32292 2.64584-1.32292.35507 0 1.32291 3.96875 3.96875 3.96875.73087 0 1.32291-1.32291 2.64584-1.32291.33714 0 0-1.32292 1.32291-1.32292.55164 0 1.32291 2.64583 2.64584 2.64583 1.32291 0 1.32291-1.32291 2.64582-1.32291 1.32293 0 1.32293 1.32291 3.96875 1.32291h7.9375c1.32293 0 1.32293-3.96875 3.96875-3.96875 2.27699.1195 1.32293 3.96875 6.61459 3.96875 2.64584 0 1.32291-2.64583 2.64584-2.64583 0 0 0 1.32292 1.32291 1.32292 1.32292 0 1.32291-1.32292 2.64584-1.32292 1.32291 0 1.34709 2.77684 2.64582 2.64583 1.34711.13101 10.58334 0 11.90625 0 1.32293 0 1.32293-2.64583 2.64584-2.64583 1.32291 0 1.32291 1.32292 2.64584 1.32292.34762 0 2.64582-1.32292 3.96875-1.32292.38527 0 2.64582 2.64583 3.96875 2.64583h13.22916-158.75 2.64583c3.96875 0 3.92331-5.29166 5.29167-5.29167z" fill="#9b7ce9"/>
    <path fill="#e6e6e6" d="M20.90259 183.23274h224.89583v.53386H20.90259z"/>
    <path d="M87.04842 214.19369v5.29167h26.45834v-5.29167zm2.64584 1.32292a1.32292 1.32292 0 0 1 1.32291 1.32291 1.32292 1.32292 0 0 1-1.32291 1.32292 1.32292 1.32292 0 0 1-1.32292-1.32292 1.32292 1.32292 0 0 1 1.32292-1.32292z" fill="#55a"/>
    <path fill="none" stroke="#b3b3b3" stroke-width=".13428" d="M20.9026 259.17286h26.45832v-44.97917H20.9026z"/>
    <path fill="none" stroke="#b3b3b3" stroke-width=".13573" d="M53.9755 259.17286h26.45834v-44.97917H53.97551z"/>
    <path fill="none" stroke="#b3b3b3" stroke-width=".13229" d="M87.04843 214.1937h26.45833v44.97917H87.04843z"/>
    <path d="M120.12134 214.1937v5.29166h26.45833v-5.29166zm2.64583 1.32291a1.32292 1.32292 0 0 1 1.32292 1.32292 1.32292 1.32292 0 0 1-1.32292 1.32292 1.32292 1.32292 0 0 1-1.32292-1.32292 1.32292 1.32292 0 0 1 1.32292-1.32292z" fill="#55a"/>
    <path fill="none" stroke="#b3b3b3" stroke-width=".13229" d="M120.12133 214.1937h26.45833v44.97918h-26.45833z"/>
    <path fill="#e6e6e6" d="M121.44425 220.80827h23.8125v10.58334h-23.8125z"/>
    <g fill="#666">
      <path d="M121.44426 234.03745h13.22916v1.32291h-13.22916zM135.99634 234.03745h3.96875v1.32291h-3.96875zM141.288 234.03745h3.96876v1.32291H141.288zM121.44426 236.68328h10.58333v1.32292h-10.58333zM133.3505 236.68328h7.9375v1.32292h-7.9375zM142.61093 236.68328h1.32291v1.32292h-1.32291z"/>
    </g>
    <g fill="#666">
      <path d="M121.44426 239.32912h3.96875v1.32291h-3.96875zM126.73593 239.32912h7.9375v1.32291h-7.9375zM135.99634 239.32912h3.96875v1.32291h-3.96875zM141.28801 239.32912h3.96875v1.32291h-3.96875zM121.44426 241.97495h9.26042v1.32292h-9.26042zM132.02759 241.97495h5.29167v1.32292h-5.29167zM138.64218 241.97495h3.96875v1.32292h-3.96875z"/>
    </g>
    <path fill="#e6e6e6" d="M121.44425 245.9437h10.58333v6.61459h-10.58333z"/>
    <g fill="#e6e6e6">
      <path d="M125.413 215.51662h14.5521v1.32292H125.413z"/>
      <path d="M125.413 216.83953h9.26042v1.32291h-9.26041z"/>
    </g>
    <path d="M153.19426 214.1937v5.29165h26.45833v-5.29166zm2.64583 1.3229a1.32292 1.32292 0 0 1 1.32292 1.32292 1.32292 1.32292 0 0 1-1.32292 1.32292 1.32292 1.32292 0 0 1-1.32292-1.32292 1.32292 1.32292 0 0 1 1.32292-1.32292z" fill="#55a"/>
    <path fill="none" stroke="#b3b3b3" stroke-width=".13229" d="M153.19424 214.1937h26.45833v44.97917h-26.45833z"/>
    <path fill="#e6e6e6" d="M154.51716 220.80827h23.8125v10.58334h-23.8125z"/>
    <g fill="#666">
      <path d="M154.51718 234.03744h13.22916v1.32292h-13.22916zM169.06926 234.03744h3.96875v1.32292h-3.96875zM174.36093 234.03744h3.96875v1.32292h-3.96875zM154.51718 236.68328h10.58333v1.32291h-10.58333zM166.42343 236.68328h7.9375v1.32291h-7.9375zM175.68385 236.68328h1.32291v1.32291h-1.32291z"/>
    </g>
    <g fill="#666">
      <path d="M154.51718 239.32911h3.96875v1.32292h-3.96875zM159.80885 239.32911h7.9375v1.32292h-7.9375zM169.06926 239.32911h3.96875v1.32292h-3.96875zM174.36093 239.32911h3.96875v1.32292h-3.96875zM154.51718 241.97495h9.26042v1.32291h-9.26042zM165.10051 241.97495h5.29167v1.32291h-5.29167zM171.7151 241.97495h3.96875v1.32291h-3.96875z"/>
    </g>
    <path fill="#e6e6e6" d="M154.51716 245.94369h10.58334v6.61459h-10.58334zM167.74633 245.94369h10.58334v6.61459h-10.58334z"/>
    <g fill="#e6e6e6">
      <path d="M158.48593 215.51662H173.038v1.32291h-14.55208z"/>
      <path d="M158.48593 216.83952h9.26041v1.32292h-9.26041z"/>
    </g>
    <g fill="#666">
      <path d="M154.51718 255.20412h3.96875v1.32291h-3.96875zM159.80884 255.20412h7.9375v1.32291h-7.9375zM169.06926 255.20412h3.96875v1.32291h-3.96875zM174.36093 255.20412h3.96875v1.32291h-3.96875zM154.51718 257.84995h9.26041v1.32292h-9.26041zM165.1005 257.84995h5.29167v1.32292h-5.29166zM171.71509 257.84995h3.96875v1.32292h-3.96875z"/>
    </g>
    <path d="M186.26717 214.1937v5.29165h26.45834v-5.29166zm2.64584 1.3229a1.32292 1.32292 0 0 1 1.32291 1.32292 1.32292 1.32292 0 0 1-1.32291 1.32292 1.32292 1.32292 0 0 1-1.32292-1.32292 1.32292 1.32292 0 0 1 1.32292-1.32292z" fill="#55a"/>
    <path fill="none" stroke="#b3b3b3" stroke-width=".13229" d="M186.26716 214.1937h26.45833v44.97917h-26.45833z"/>
    <path fill="#e6e6e6" d="M187.59008 220.80827h23.8125v10.58334h-23.8125z"/>
    <g fill="#666">
      <path d="M187.5901 234.03744h13.22916v1.32292h-13.22917zM202.14217 234.03744h3.96875v1.32292h-3.96875zM207.43384 234.03744h3.96875v1.32292h-3.96875zM187.5901 236.68328h10.58333v1.32291h-10.58334zM199.49634 236.68328h7.9375v1.32291h-7.9375zM208.75676 236.68328h1.32292v1.32291h-1.32292z"/>
    </g>
    <g fill="#666">
      <path d="M187.5901 239.32911h3.96875v1.32292h-3.96875zM192.88176 239.32911h7.9375v1.32292h-7.9375zM202.14218 239.32911h3.96875v1.32292h-3.96875zM207.43385 239.32911h3.96875v1.32292h-3.96875zM187.5901 241.97495h9.26041v1.32291h-9.26041zM198.17343 241.97495h5.29166v1.32291h-5.29166zM204.78801 241.97495h3.96875v1.32291h-3.96875z"/>
    </g>
    <path fill="#e6e6e6" d="M187.59008 245.94369h10.58334v6.61459h-10.58334zM200.81926 245.94369h10.58333v6.61459h-10.58333z"/>
    <g fill="#e6e6e6">
      <path d="M191.55885 215.51662h14.55208v1.32291h-14.55208z"/>
      <path d="M191.55885 216.83952h9.26041v1.32292h-9.26041z"/>
    </g>
    <g fill="#666">
      <path d="M187.5901 255.20412h3.96874v1.32291h-3.96875zM192.88176 255.20412h7.9375v1.32291h-7.9375zM202.14217 255.20412h3.96875v1.32291h-3.96875zM207.43384 255.20412h3.96875v1.32291h-3.96875zM187.5901 257.84995h9.2604v1.32292h-9.2604zM198.17342 257.84995h5.29167v1.32292h-5.29167zM204.788 257.84995h3.96876v1.32292H204.788z"/>
    </g>
    <path d="M219.3401 214.1937v5.29165h26.45833v-5.29166zm2.64583 1.3229a1.32292 1.32292 0 0 1 1.32291 1.32292 1.32292 1.32292 0 0 1-1.32291 1.32292 1.32292 1.32292 0 0 1-1.32292-1.32292 1.32292 1.32292 0 0 1 1.32292-1.32292z" fill="#55a"/>
    <path fill="none" stroke="#b3b3b3" stroke-width=".13229" d="M219.34007 214.1937h26.45833v44.97917h-26.45833z"/>
    <path fill="#e6e6e6" d="M220.663 220.80827h23.8125v10.58334H220.663z"/>
    <g fill="#666">
      <path d="M220.66301 234.03744h13.22917v1.32292H220.663zM235.2151 234.03744h3.96874v1.32292h-3.96875zM240.50676 234.03744h3.96875v1.32292h-3.96875zM220.66301 236.68328h10.58334v1.32291H220.663zM232.56926 236.68328h7.9375v1.32291h-7.9375zM241.82968 236.68328h1.32292v1.32291h-1.32292z"/>
    </g>
    <g fill="#666">
      <path d="M220.66302 239.32911h3.96875v1.32292h-3.96875zM225.95468 239.32911h7.9375v1.32292h-7.9375zM235.2151 239.32911h3.96875v1.32292h-3.96875zM240.50677 239.32911h3.96875v1.32292h-3.96875zM220.66302 241.97495h9.26041v1.32291h-9.26041zM231.24635 241.97495h5.29166v1.32291h-5.29166zM237.86093 241.97495h3.96875v1.32291h-3.96875z"/>
    </g>
    <path fill="#e6e6e6" d="M220.663 245.94369h10.58333v6.61459h-10.58334zM233.89216 245.94369h10.58334v6.61459h-10.58334z"/>
    <g fill="#e6e6e6">
      <path d="M224.63176 215.51662h14.55209v1.32291h-14.55209z"/>
      <path d="M224.63176 216.83952h9.26042v1.32292h-9.26042z"/>
    </g>
    <g fill="#666">
      <path d="M220.66301 255.20412h3.96875v1.32291h-3.96875zM225.95468 255.20412h7.9375v1.32291h-7.9375zM235.2151 255.20412h3.96874v1.32291h-3.96875zM240.50676 255.20412h3.96875v1.32291h-3.96875zM220.66301 257.84995h9.26042v1.32292H220.663zM231.24634 257.84995h5.29167v1.32292h-5.29167zM237.86093 257.84995h3.96875v1.32292h-3.96875z"/>
    </g>
    <text style="line-height:1.25;" font-weight="400" font-size="3.52778" word-spacing="0" fill="#666" stroke-width=".13229">
      <tspan y="189.02335" x="20.65812" font-family="Arial">Network</tspan>
    </text>
    <text style="line-height:1.25;" font-weight="400" font-size="3.52778" letter-spacing="0" word-spacing="0" fill="#666" stroke-width=".13229">
      <tspan x="20.76607" y="182.11877" font-family="Arial">CPU (Main Thread)</tspan>
    </text>
    <text style="line-height:1.25;text-align:center" font-weight="700" font-size="4" font-family="Lucida Grande" letter-spacing="0" word-spacing="0" text-anchor="middle" stroke-width=".13229">
      <tspan y="162.80147" x="72.06054">Time to</tspan><tspan y="167.2112" x="72.06054">First Byte</tspan>
    </text>
    <text style="line-height:1.25;text-align:center" font-weight="700" font-size="4" font-family="Lucida Grande" letter-spacing="0" word-spacing="0" text-anchor="middle" stroke-width=".13229">
      <tspan x="133.96202" y="153.32918">First</tspan><tspan x="133.96202" y="157.73891">Meaningful</tspan><tspan x="133.96202" y="162.14862">Paint</tspan>
    </text>
    <text style="line-height:1.25;text-align:center" font-weight="700" font-size="4" font-family="Lucida Grande" letter-spacing="0" word-spacing="0" text-anchor="middle" stroke-width=".13229">
      <tspan x="100.48602" y="153.32918">First</tspan><tspan x="100.48602" y="157.73891">Contentful</tspan><tspan x="100.48602" y="162.14862">Paint</tspan>
    </text>
    <path fill="#666" d="M85.72551 163.92285h.65474v25.13542h-.65474zM85.72551 163.92285v.65474h-3.96875v-.65474z"/>
    <text style="line-height:1.25;text-align:center" font-weight="700" font-size="4" font-family="Lucida Grande" letter-spacing="0" word-spacing="0" text-anchor="middle" stroke-width=".13229">
      <tspan y="153.32918" x="206.1781">Time to</tspan><tspan y="157.73891" x="206.1781">Interactive</tspan>
    </text>
    <text style="line-height:1.25;text-align:center" font-weight="700" font-size="4" font-family="Lucida Grande" letter-spacing="0" word-spacing="0" text-anchor="middle" stroke-width=".13229">
      <tspan y="153.32918" x="170.97243">DOMContentLoaded</tspan>
    </text>
    <text style="line-height:1.25;text-align:center" x="233.51839" y="153.41359" font-weight="700" font-size="4" font-family="Lucida Grande"  letter-spacing="0" word-spacing="0" text-anchor="middle" stroke-width=".13229">
      <tspan x="233.51839" y="153.41359">Loaded</tspan>
    </text>
    <path fill="#666" d="M176.46352 155.23659h.65474v26.73903h-.65474zM206.13043 159.112h.65474v22.99726h-.65474zM233.25829 154.96933h.65474v27.0063h-.65474z"/>
    <path fill="#588fd8" d="M85.88669 194.39021h29.27607v2.64583H85.88669zM90.01997 198.26562h46.64859v2.64583H90.01997zM89.88634 202.27467h22.8616v2.64583h-22.8616zM101.91347 206.2169h63.35293v2.64583h-63.35293z"/>
    <path fill="#666" d="M100.15807 163.92285h.65474v49.05604h-.65474zM133.70039 163.78922h.65474v49.05604h-.65474z"/>
  </g>
</svg>
